<svg width="80" height="80" viewBox="0 0 80 80" fill="none" xmlns="http://www.w3.org/2000/svg">
<path d="M39.9922 0C42.7573 0 44.9912 2.23394 44.9912 4.99902V9.99805H49.9902C52.0055 9.99805 53.8332 11.2166 54.6143 13.0912C55.3954 14.9658 54.958 17.106 53.5364 18.5433L43.5384 28.5413C41.5856 30.494 38.4144 30.494 36.4616 28.5413L26.4636 18.5433C25.0264 17.106 24.6046 14.9658 25.3857 13.0912C26.1668 11.2166 27.9789 9.99805 30.0098 9.99805H35.0088V4.99902C35.0088 2.23394 37.2427 0 40.0078 0H39.9922ZM26.4636 61.4567L36.4616 51.4587C38.4144 49.506 41.5856 49.506 43.5384 51.4587L53.5364 61.4567C54.9736 62.894 55.3954 65.0342 54.6143 66.9088C53.8332 68.7834 52.0211 70.002 49.9902 70.002H44.9912V75.001C44.9912 77.7661 42.7573 80 39.9922 80C37.2271 80 34.9932 77.7661 34.9932 75.001V69.9863H29.9941C27.9789 69.9863 26.1511 68.7678 25.37 66.8932C24.5889 65.0186 25.0264 62.8783 26.448 61.4411L26.4636 61.4567ZM4.99902 34.9932H9.99805V29.9941C9.99805 27.9789 11.2166 26.1511 13.0912 25.37C14.9658 24.5889 17.106 25.0264 18.5433 26.448L28.5413 36.446C30.494 38.3988 30.494 41.57 28.5413 43.5228L18.5433 53.5208C17.106 54.958 14.9658 55.3798 13.0912 54.5987C11.2166 53.8176 9.99805 52.0055 9.99805 49.9746V44.9912H4.99902C2.23394 44.9912 0 42.7573 0 39.9922C0 37.2271 2.23394 34.9932 4.99902 34.9932ZM51.4587 43.5228C49.506 41.57 49.506 38.3988 51.4587 36.446L61.4567 26.448C62.894 25.0107 65.0342 24.5889 66.9088 25.37C68.7834 26.1511 70.002 27.9633 70.002 29.9941V34.9932H75.001C77.7661 34.9932 80 37.2271 80 39.9922C80 42.7573 77.7661 44.9912 75.001 44.9912H69.9863V49.9902C69.9863 52.0055 68.7678 53.8332 66.8932 54.6143C65.0186 55.3954 62.8783 54.958 61.4411 53.5364L51.4431 43.5384L51.4587 43.5228ZM39.9922 34.9932C41.318 34.9932 42.5895 35.5198 43.527 36.4573C44.4645 37.3948 44.9912 38.6664 44.9912 39.9922C44.9912 41.318 44.4645 42.5895 43.527 43.527C42.5895 44.4645 41.318 44.9912 39.9922 44.9912C38.6664 44.9912 37.3948 44.4645 36.4573 43.527C35.5198 42.5895 34.9932 41.318 34.9932 39.9922C34.9932 38.6664 35.5198 37.3948 36.4573 36.4573C37.3948 35.5198 38.6664 34.9932 39.9922 34.9932Z" fill="#FFE769"/>
</svg>
