<svg width="24" height="24" viewBox="0 0 24 24" fill="none" xmlns="http://www.w3.org/2000/svg">
<path d="M3.42857 0C1.5375 0 0 1.5375 0 3.42857V20.5714C0 22.4625 1.5375 24 3.42857 24H20.5714C22.4625 24 24 22.4625 24 20.5714V3.42857C24 1.5375 22.4625 0 20.5714 0H3.42857ZM6.85714 3.42857V6.85714H10.2857V3.42857H13.7143V6.85714H17.1429V3.42857H20.5714V6.85714H17.1429V10.2857H20.5714V13.7143H17.1429V17.1429H20.5714V20.5714H17.1429V17.1429H13.7143V20.5714H10.2857V17.1429H6.85714V20.5714H3.42857V17.1429H6.85714V13.7143H3.42857V10.2857H6.85714V6.85714H3.42857V3.42857H6.85714ZM10.2857 10.2857H13.7143V6.85714H10.2857V10.2857ZM10.2857 13.7143V10.2857H6.85714V13.7143H10.2857ZM13.7143 13.7143H10.2857V17.1429H13.7143V13.7143ZM13.7143 13.7143H17.1429V10.2857H13.7143V13.7143Z" fill="#FFCD05"/>
</svg>
