<svg width="75" height="60" viewBox="0 0 75 60" fill="none" xmlns="http://www.w3.org/2000/svg">
<path d="M37.5 0C39.5742 0 41.25 1.67578 41.25 3.75V11.25H55.3125C59.9766 11.25 63.75 15.0234 63.75 19.6875V51.5625C63.75 56.2266 59.9766 60 55.3125 60H19.6875C15.0234 60 11.25 56.2266 11.25 51.5625V19.6875C11.25 15.0234 15.0234 11.25 19.6875 11.25H33.75V3.75C33.75 1.67578 35.4258 0 37.5 0ZM24.375 45C23.3437 45 22.5 45.8437 22.5 46.875C22.5 47.9063 23.3437 48.75 24.375 48.75H28.125C29.1563 48.75 30 47.9063 30 46.875C30 45.8437 29.1563 45 28.125 45H24.375ZM35.625 45C34.5937 45 33.75 45.8437 33.75 46.875C33.75 47.9063 34.5937 48.75 35.625 48.75H39.375C40.4063 48.75 41.25 47.9063 41.25 46.875C41.25 45.8437 40.4063 45 39.375 45H35.625ZM46.875 45C45.8437 45 45 45.8437 45 46.875C45 47.9063 45.8437 48.75 46.875 48.75H50.625C51.6563 48.75 52.5 47.9063 52.5 46.875C52.5 45.8437 51.6563 45 50.625 45H46.875ZM30.9375 30C30.9375 28.7568 30.4436 27.5645 29.5646 26.6854C28.6855 25.8064 27.4932 25.3125 26.25 25.3125C25.0068 25.3125 23.8145 25.8064 22.9354 26.6854C22.0564 27.5645 21.5625 28.7568 21.5625 30C21.5625 31.2432 22.0564 32.4355 22.9354 33.3146C23.8145 34.1936 25.0068 34.6875 26.25 34.6875C27.4932 34.6875 28.6855 34.1936 29.5646 33.3146C30.4436 32.4355 30.9375 31.2432 30.9375 30ZM48.75 34.6875C49.9932 34.6875 51.1855 34.1936 52.0646 33.3146C52.9436 32.4355 53.4375 31.2432 53.4375 30C53.4375 28.7568 52.9436 27.5645 52.0646 26.6854C51.1855 25.8064 49.9932 25.3125 48.75 25.3125C47.5068 25.3125 46.3145 25.8064 45.4354 26.6854C44.5564 27.5645 44.0625 28.7568 44.0625 30C44.0625 31.2432 44.5564 32.4355 45.4354 33.3146C46.3145 34.1936 47.5068 34.6875 48.75 34.6875ZM5.625 26.25H7.5V48.75H5.625C2.51953 48.75 0 46.2305 0 43.125V31.875C0 28.7695 2.51953 26.25 5.625 26.25ZM69.375 26.25C72.4805 26.25 75 28.7695 75 31.875V43.125C75 46.2305 72.4805 48.75 69.375 48.75H67.5V26.25H69.375Z" fill="white"/>
</svg>
