<svg width="100" height="80" viewBox="0 0 100 80" fill="none" xmlns="http://www.w3.org/2000/svg">
<path d="M50 0C52.7656 0 55 2.23437 55 5V15H73.75C79.9687 15 85 20.0313 85 26.25V68.75C85 74.9687 79.9687 80 73.75 80H26.25C20.0313 80 15 74.9687 15 68.75V26.25C15 20.0313 20.0313 15 26.25 15H45V5C45 2.23437 47.2344 0 50 0ZM32.5 60C31.125 60 30 61.125 30 62.5C30 63.875 31.125 65 32.5 65H37.5C38.875 65 40 63.875 40 62.5C40 61.125 38.875 60 37.5 60H32.5ZM47.5 60C46.125 60 45 61.125 45 62.5C45 63.875 46.125 65 47.5 65H52.5C53.875 65 55 63.875 55 62.5C55 61.125 53.875 60 52.5 60H47.5ZM62.5 60C61.125 60 60 61.125 60 62.5C60 63.875 61.125 65 62.5 65H67.5C68.875 65 70 63.875 70 62.5C70 61.125 68.875 60 67.5 60H62.5ZM41.25 40C41.25 38.3424 40.5915 36.7527 39.4194 35.5806C38.2473 34.4085 36.6576 33.75 35 33.75C33.3424 33.75 31.7527 34.4085 30.5806 35.5806C29.4085 36.7527 28.75 38.3424 28.75 40C28.75 41.6576 29.4085 43.2473 30.5806 44.4194C31.7527 45.5915 33.3424 46.25 35 46.25C36.6576 46.25 38.2473 45.5915 39.4194 44.4194C40.5915 43.2473 41.25 41.6576 41.25 40ZM65 46.25C66.6576 46.25 68.2473 45.5915 69.4194 44.4194C70.5915 43.2473 71.25 41.6576 71.25 40C71.25 38.3424 70.5915 36.7527 69.4194 35.5806C68.2473 34.4085 66.6576 33.75 65 33.75C63.3424 33.75 61.7527 34.4085 60.5806 35.5806C59.4085 36.7527 58.75 38.3424 58.75 40C58.75 41.6576 59.4085 43.2473 60.5806 44.4194C61.7527 45.5915 63.3424 46.25 65 46.25ZM7.5 35H10V65H7.5C3.35938 65 0 61.6406 0 57.5V42.5C0 38.3594 3.35938 35 7.5 35ZM92.5 35C96.6406 35 100 38.3594 100 42.5V57.5C100 61.6406 96.6406 65 92.5 65H90V35H92.5Z" fill="#FFCD05"/>
</svg>
