<svg width="133" height="80" viewBox="0 0 133 80" fill="none" xmlns="http://www.w3.org/2000/svg">
<path d="M56.4494 0.124429L45.8522 10.7216C42.6792 11.5927 39.7344 13.1895 37.2458 15.3877L31.7294 20.3027C29.6141 22.1899 26.856 23.2268 24.0148 23.2268H19.9087V49.7717C24.1393 49.8961 28.1625 51.6174 31.1695 54.6244L38.5523 62.0072L40.004 63.4589L45.6033 69.0582C46.8891 70.344 49.0044 70.344 50.2901 69.0582C50.6427 68.7057 50.9123 68.2909 51.0574 67.8554C51.6381 66.2585 52.9861 65.0557 54.6452 64.6824C56.3042 64.3092 58.0462 64.8069 59.249 66.0304L61.4888 68.2287C63.8944 70.6343 67.7932 70.6343 70.1781 68.2287C71.2979 67.1088 71.8993 65.6779 71.9616 64.2055C72.0445 62.3805 73.1229 60.7629 74.7819 59.9749C76.441 59.1868 78.3697 59.3527 79.8421 60.4104C81.7915 61.7998 84.5082 61.6132 86.2502 59.8712C88.1996 57.9218 88.1996 54.7696 86.2502 52.8409L70.5306 37.1214L63.1063 43.965C57.4448 49.191 48.7555 49.274 42.9903 44.1516C36.4163 38.3035 36.2711 28.1003 42.6585 22.0654L57.196 8.33676C62.8782 2.9863 70.3854 0 78.2038 0C85.6902 0 92.9279 2.75818 98.5064 7.71461L104.749 13.2724H112.816H121.111H129.406C131.231 13.2724 132.724 14.7656 132.724 16.5906V59.726C132.724 63.3967 129.759 66.3622 126.088 66.3622H119.452C117.005 66.3622 114.848 65.035 113.708 63.0441H96.1008C95.3957 64.4336 94.4625 65.7608 93.3012 66.9222C89.7549 70.4684 84.84 71.8579 80.2361 71.0905C79.4895 72.6044 78.4733 74.0146 77.2083 75.2797C71.5468 80.9412 62.6916 81.5011 56.3872 76.9595C51.1819 81.273 43.4258 81.0034 38.5523 76.1092L32.9737 70.5099L31.5221 69.0582L24.1393 61.6754C22.9987 60.5348 21.5055 59.8712 19.9087 59.7468C19.9087 63.3967 16.9224 66.3622 13.2724 66.3622H6.63622C2.96556 66.3622 0 63.3967 0 59.726V16.5906C0 14.7656 1.49315 13.2724 3.31811 13.2724H11.6134H19.9087H24.0148C24.4296 13.2724 24.8236 13.1273 25.114 12.8577L30.6096 7.96347C36.3955 2.84113 43.8406 0 51.5759 0H53.7119C54.6244 0 55.5576 0.0414761 56.4494 0.124429ZM112.816 53.0898V23.2268H102.861C101.638 23.2268 100.456 22.7705 99.5641 21.9618L91.9117 15.1596C88.1373 11.8 83.2639 9.95434 78.2038 9.95434C72.9362 9.95434 67.8761 11.9659 64.0396 15.5744L49.5021 29.3031C47.366 31.3354 47.4075 34.7572 49.6058 36.7066C51.5344 38.4279 54.4585 38.3864 56.3457 36.6444L71.2565 22.8742C73.2681 21.0078 76.4203 21.1322 78.2867 23.1646C80.1531 25.1969 80.0287 28.3284 77.9964 30.1948L77.8305 30.3607L93.2597 45.7899C95.3335 47.8638 96.6815 50.4146 97.2829 53.0691H112.795L112.816 53.0898ZM13.2724 56.4079C13.2724 55.5279 12.9229 54.6839 12.3006 54.0616C11.6783 53.4394 10.8344 53.0898 9.95434 53.0898C9.07432 53.0898 8.23034 53.4394 7.60808 54.0616C6.98581 54.6839 6.63622 55.5279 6.63622 56.4079C6.63622 57.2879 6.98581 58.1319 7.60808 58.7542C8.23034 59.3764 9.07432 59.726 9.95434 59.726C10.8344 59.726 11.6783 59.3764 12.3006 58.7542C12.9229 58.1319 13.2724 57.2879 13.2724 56.4079ZM122.77 59.726C123.65 59.726 124.494 59.3764 125.116 58.7542C125.739 58.1319 126.088 57.2879 126.088 56.4079C126.088 55.5279 125.739 54.6839 125.116 54.0616C124.494 53.4394 123.65 53.0898 122.77 53.0898C121.89 53.0898 121.046 53.4394 120.424 54.0616C119.802 54.6839 119.452 55.5279 119.452 56.4079C119.452 57.2879 119.802 58.1319 120.424 58.7542C121.046 59.3764 121.89 59.726 122.77 59.726Z" fill="#FFCD05"/>
</svg>
