<svg width="25" height="16" viewBox="0 0 25 16" fill="none" xmlns="http://www.w3.org/2000/svg">
<path d="M10.6328 0.0234374L8.63672 2.01953C8.03906 2.18359 7.48438 2.48437 7.01563 2.89844L5.97656 3.82422C5.57813 4.17969 5.05859 4.375 4.52344 4.375H3.75V9.375C4.54687 9.39844 5.30469 9.72266 5.87109 10.2891L7.26172 11.6797L7.53516 11.9531L8.58984 13.0078C8.83203 13.25 9.23047 13.25 9.47266 13.0078C9.53906 12.9414 9.58984 12.8633 9.61719 12.7813C9.72656 12.4805 9.98047 12.2539 10.293 12.1836C10.6055 12.1133 10.9336 12.207 11.1602 12.4375L11.582 12.8516C12.0352 13.3047 12.7695 13.3047 13.2187 12.8516C13.4297 12.6406 13.543 12.3711 13.5547 12.0938C13.5703 11.75 13.7734 11.4453 14.0859 11.2969C14.3984 11.1484 14.7617 11.1797 15.0391 11.3789C15.4062 11.6406 15.918 11.6055 16.2461 11.2773C16.6133 10.9102 16.6133 10.3164 16.2461 9.95312L13.2852 6.99219L11.8867 8.28125C10.8203 9.26563 9.18359 9.28125 8.09766 8.31641C6.85938 7.21484 6.83203 5.29297 8.03516 4.15625L10.7734 1.57031C11.8437 0.5625 13.2578 0 14.7305 0C16.1406 0 17.5039 0.519531 18.5547 1.45312L19.7305 2.5H21.25H22.8125H24.375C24.7188 2.5 25 2.78125 25 3.125V11.25C25 11.9414 24.4414 12.5 23.75 12.5H22.5C22.0391 12.5 21.6328 12.25 21.418 11.875H18.1016C17.9687 12.1367 17.793 12.3867 17.5742 12.6055C16.9062 13.2734 15.9805 13.5352 15.1133 13.3906C14.9727 13.6758 14.7812 13.9414 14.543 14.1797C13.4766 15.2461 11.8086 15.3516 10.6211 14.4961C9.64062 15.3086 8.17969 15.2578 7.26172 14.3359L6.21094 13.2812L5.9375 13.0078L4.54688 11.6172C4.33203 11.4023 4.05078 11.2773 3.75 11.2539C3.75 11.9414 3.1875 12.5 2.5 12.5H1.25C0.558594 12.5 0 11.9414 0 11.25V3.125C0 2.78125 0.28125 2.5 0.625 2.5H2.1875H3.75H4.52344C4.60156 2.5 4.67578 2.47266 4.73047 2.42188L5.76563 1.5C6.85547 0.535156 8.25781 0 9.71484 0H10.1172C10.2891 0 10.4648 0.00781244 10.6328 0.0234374ZM21.25 10V4.375H19.375C19.1445 4.375 18.9219 4.28906 18.7539 4.13672L17.3125 2.85547C16.6016 2.22266 15.6836 1.875 14.7305 1.875C13.7383 1.875 12.7852 2.25391 12.0625 2.93359L9.32422 5.51953C8.92187 5.90234 8.92969 6.54688 9.34375 6.91406C9.70703 7.23828 10.2578 7.23047 10.6133 6.90234L13.4219 4.30859C13.8008 3.95703 14.3945 3.98047 14.7461 4.36328C15.0977 4.74609 15.0742 5.33594 14.6914 5.6875L14.6602 5.71875L17.5664 8.625C17.957 9.01562 18.2109 9.49609 18.3242 9.99609H21.2461L21.25 10ZM2.5 10.625C2.5 10.4592 2.43415 10.3003 2.31694 10.1831C2.19973 10.0658 2.04076 10 1.875 10C1.70924 10 1.55027 10.0658 1.43306 10.1831C1.31585 10.3003 1.25 10.4592 1.25 10.625C1.25 10.7908 1.31585 10.9497 1.43306 11.0669C1.55027 11.1842 1.70924 11.25 1.875 11.25C2.04076 11.25 2.19973 11.1842 2.31694 11.0669C2.43415 10.9497 2.5 10.7908 2.5 10.625ZM23.125 11.25C23.2908 11.25 23.4497 11.1842 23.5669 11.0669C23.6842 10.9497 23.75 10.7908 23.75 10.625C23.75 10.4592 23.6842 10.3003 23.5669 10.1831C23.4497 10.0658 23.2908 10 23.125 10C22.9592 10 22.8003 10.0658 22.6831 10.1831C22.5658 10.3003 22.5 10.4592 22.5 10.625C22.5 10.7908 22.5658 10.9497 22.6831 11.0669C22.8003 11.1842 22.9592 11.25 23.125 11.25Z" fill="#3D3D3D"/>
</svg>
