<svg width="18" height="25" viewBox="0 0 18 25" fill="none" xmlns="http://www.w3.org/2000/svg">
<path d="M13.7305 12.1533C14.4336 11.1475 14.8438 9.92188 14.8438 8.59375C14.8438 5.1416 12.0459 2.34375 8.59375 2.34375C5.1416 2.34375 2.34375 5.1416 2.34375 8.59375C2.34375 9.92188 2.75391 11.1475 3.45703 12.1533C3.6377 12.4121 3.85254 12.7051 4.08203 13.0176C4.71191 13.8818 5.46387 14.917 6.02539 15.9375C6.5332 16.8652 6.79199 17.832 6.91895 18.7451L4.54102 18.75C4.43359 18.1641 4.25293 17.5928 3.96484 17.0654C3.48145 16.1865 2.88086 15.3613 2.28027 14.5361C2.02637 14.1895 1.77246 13.8428 1.52832 13.4912C0.566406 12.1045 0 10.415 0 8.59375C0 3.84766 3.84766 0 8.59375 0C13.3398 0 17.1875 3.84766 17.1875 8.59375C17.1875 10.415 16.6211 12.1045 15.6543 13.4912C15.4102 13.8428 15.1563 14.1895 14.9023 14.5361C14.3018 15.3564 13.7012 16.1816 13.2178 17.0654C12.9297 17.5928 12.749 18.1641 12.6416 18.75H10.2686C10.3955 17.8369 10.6543 16.8652 11.1621 15.9424C11.7236 14.9219 12.4756 13.8867 13.1055 13.0225C13.335 12.71 13.5449 12.417 13.7256 12.1582L13.7305 12.1533ZM8.59375 6.25C7.2998 6.25 6.25 7.2998 6.25 8.59375C6.25 9.02344 5.89844 9.375 5.46875 9.375C5.03906 9.375 4.6875 9.02344 4.6875 8.59375C4.6875 6.43555 6.43555 4.6875 8.59375 4.6875C9.02344 4.6875 9.375 5.03906 9.375 5.46875C9.375 5.89844 9.02344 6.25 8.59375 6.25ZM8.59375 25C6.43555 25 4.6875 23.252 4.6875 21.0938V20.3125H12.5V21.0938C12.5 23.252 10.752 25 8.59375 25Z" fill="white"/>
</svg>
