<svg width="35" height="36" viewBox="0 0 35 36" fill="none" xmlns="http://www.w3.org/2000/svg">
<path d="M17.6123 6.63V1M15.1123 3H20.1123" stroke="#AAAAAA" stroke-width="1.5" stroke-linecap="round"/>
<path fill-rule="evenodd" clip-rule="evenodd" d="M17.6123 20C17.6123 20 22.1123 12.5 20.6123 9.5C20.6123 9.5 19.6123 7 17.6123 7C15.6123 7 14.6123 9.5 14.6123 9.5C13.1123 12.5 17.6123 20 17.6123 20Z" fill="white" stroke="#AAAAAA" stroke-width="1.5"/>
<path fill-rule="evenodd" clip-rule="evenodd" d="M7.61225 32.0001C13.1122 35.5001 22.1122 35.5001 27.6122 32.0001V25.0001C27.6122 25.0001 36.6122 20.5001 33.6122 14.5001C29.6122 8.00011 20.1122 11.0001 17.6122 18.5001C15.1122 11.0001 5.61225 8.00011 1.61224 14.5001C-1.38776 20.5001 7.61225 25.0001 7.61225 25.0001V32.0001Z" fill="white"/>
<path d="M17.6122 18.5001C20.1122 11.0001 29.6122 8.00011 33.6122 14.5001C36.6122 20.5001 27.6122 25.0001 27.6122 25.0001V32.0001C22.1122 35.5001 13.1122 35.5001 7.61225 32.0001V25.0001C7.61225 25.0001 -1.38776 20.5001 1.61224 14.5001C5.61224 8.00011 15.1122 11.0001 17.6122 18.5001ZM17.6122 18.5001V22.0001" stroke="#AAAAAA" stroke-width="1.5" stroke-linecap="round" stroke-linejoin="round"/>
<path d="M7.6123 25C13.1123 22 22.1123 22 27.6123 25M7.6123 28.5C13.1123 25.5 22.1123 25.5 27.6123 28.5M7.6123 32C13.1123 29 22.1123 29 27.6123 32" stroke="#AAAAAA" stroke-width="1.5" stroke-linecap="round" stroke-linejoin="round"/>
</svg>
