<svg width="50" height="34" viewBox="0 0 50 34" fill="none" xmlns="http://www.w3.org/2000/svg">
<path fill-rule="evenodd" clip-rule="evenodd" d="M17 4C27.5 5 33.5 12 33 33H10C10 24 20 26.5 18 12" fill="black"/>
<path d="M17 4C27.5 5 33.5 12 33 33H10C10 24 20 26.5 18 12" stroke="#AAAAAA" stroke-width="1.5" stroke-linecap="round" stroke-linejoin="round"/>
<path fill-rule="evenodd" clip-rule="evenodd" d="M19 12C19.38 14.91 13.45 19.37 11 21C8 23 8.18 25.34 6 25C4.958 24.06 7.41 21.96 6 22C5 22 6.19 23.23 5 24C4 24 0.997002 25 1 20C1 18 7 8 7 8C7 8 8.89 6.1 9 4.5C8.27 3.506 8.5 2.5 8.5 1.5C9.5 0.5 11.5 4 11.5 4H13.5C13.5 4 14.28 2.008 16 1C17 1 17 4 17 4" fill="black"/>
<path d="M19 12C19.38 14.91 13.45 19.37 11 21C8 23 8.18 25.34 6 25C4.958 24.06 7.41 21.96 6 22C5 22 6.19 23.23 5 24C4 24 0.997002 25 1 20C1 18 7 8 7 8C7 8 8.89 6.1 9 4.5C8.27 3.506 8.5 2.5 8.5 1.5C9.5 0.5 11.5 4 11.5 4H13.5C13.5 4 14.28 2.008 16 1C17 1 17 4 17 4" stroke="#AAAAAA" stroke-width="1.5" stroke-linecap="round" stroke-linejoin="round"/>
<path fill-rule="evenodd" clip-rule="evenodd" d="M4.5 19.5C4.5 19.6326 4.44732 19.7598 4.35355 19.8536C4.25979 19.9473 4.13261 20 4 20C3.86739 20 3.74021 19.9473 3.64645 19.8536C3.55268 19.7598 3.5 19.6326 3.5 19.5C3.5 19.3674 3.55268 19.2402 3.64645 19.1464C3.74021 19.0527 3.86739 19 4 19C4.13261 19 4.25979 19.0527 4.35355 19.1464C4.44732 19.2402 4.5 19.3674 4.5 19.5Z" fill="#AAAAAA" stroke="#AAAAAA" stroke-width="1.5" stroke-linecap="round" stroke-linejoin="round"/>
<path fill-rule="evenodd" clip-rule="evenodd" d="M9.93302 9.74993C9.7341 10.0944 9.49772 10.3985 9.27586 10.5952C9.05401 10.792 8.86486 10.8652 8.75002 10.7989C8.63518 10.7326 8.60406 10.5322 8.66351 10.2417C8.72296 9.95119 8.8681 9.59444 9.06702 9.24993C9.26593 8.90541 9.50231 8.60134 9.72417 8.40462C9.94602 8.20789 10.1352 8.13462 10.25 8.20093C10.3649 8.26723 10.396 8.46768 10.3365 8.75817C10.2771 9.04867 10.1319 9.40541 9.93302 9.74993Z" fill="#AAAAAA" stroke="#AAAAAA" stroke-width="1.5" stroke-linecap="round" stroke-linejoin="round"/>
<path fill-rule="evenodd" clip-rule="evenodd" d="M33 4C43.5 5 49.5 12 49 33H26C26 24 36 26.5 34 12" fill="black"/>
<path d="M33 4C43.5 5 49.5 12 49 33H26C26 24 36 26.5 34 12" stroke="#AAAAAA" stroke-width="1.5" stroke-linecap="round" stroke-linejoin="round"/>
<path fill-rule="evenodd" clip-rule="evenodd" d="M35 12C35.38 14.91 29.45 19.37 27 21C24 23 24.18 25.34 22 25C20.958 24.06 23.41 21.96 22 22C21 22 22.19 23.23 21 24C20 24 16.997 25 17 20C17 18 23 8 23 8C23 8 24.89 6.1 25 4.5C24.27 3.506 24.5 2.5 24.5 1.5C25.5 0.5 27.5 4 27.5 4H29.5C29.5 4 30.28 2.008 32 1C33 1 33 4 33 4" fill="black"/>
<path d="M35 12C35.38 14.91 29.45 19.37 27 21C24 23 24.18 25.34 22 25C20.958 24.06 23.41 21.96 22 22C21 22 22.19 23.23 21 24C20 24 16.997 25 17 20C17 18 23 8 23 8C23 8 24.89 6.1 25 4.5C24.27 3.506 24.5 2.5 24.5 1.5C25.5 0.5 27.5 4 27.5 4H29.5C29.5 4 30.28 2.008 32 1C33 1 33 4 33 4" stroke="#AAAAAA" stroke-width="1.5" stroke-linecap="round" stroke-linejoin="round"/>
<path fill-rule="evenodd" clip-rule="evenodd" d="M20.5 19.5C20.5 19.6326 20.4473 19.7598 20.3536 19.8536C20.2598 19.9473 20.1326 20 20 20C19.8674 20 19.7402 19.9473 19.6464 19.8536C19.5527 19.7598 19.5 19.6326 19.5 19.5C19.5 19.3674 19.5527 19.2402 19.6464 19.1464C19.7402 19.0527 19.8674 19 20 19C20.1326 19 20.2598 19.0527 20.3536 19.1464C20.4473 19.2402 20.5 19.3674 20.5 19.5Z" fill="#AAAAAA" stroke="#AAAAAA" stroke-width="1.5" stroke-linecap="round" stroke-linejoin="round"/>
<path fill-rule="evenodd" clip-rule="evenodd" d="M25.933 9.74993C25.7341 10.0944 25.4977 10.3985 25.2759 10.5952C25.054 10.792 24.8649 10.8652 24.75 10.7989C24.6352 10.7326 24.6041 10.5322 24.6635 10.2417C24.723 9.95119 24.8681 9.59444 25.067 9.24993C25.2659 8.90541 25.5023 8.60134 25.7242 8.40462C25.946 8.20789 26.1352 8.13462 26.25 8.20093C26.3649 8.26723 26.396 8.46768 26.3365 8.75817C26.2771 9.04867 26.1319 9.40541 25.933 9.74993Z" fill="#AAAAAA" stroke="#AAAAAA" stroke-width="1.5" stroke-linecap="round" stroke-linejoin="round"/>
</svg>
