<svg width="56" height="39" viewBox="0 0 56 39" fill="none" xmlns="http://www.w3.org/2000/svg">
<path d="M12.5 1C10.29 1 8.5 2.79 8.5 5C8.5 5.89 8.79 6.71 9.28 7.38C7.33 8.5 6 10.59 6 13C6 15.03 6.94 16.84 8.41 18.03C5.41 19.09 1 23.58 1 31.5H24C24 23.58 19.59 19.09 16.59 18.03C18.06 16.84 19 15.03 19 13C19 10.59 17.67 8.5 15.72 7.38C16.21 6.71 16.5 5.89 16.5 5C16.5 2.79 14.71 1 12.5 1Z" fill="black" stroke="#AAAAAA" stroke-width="1.5" stroke-linecap="round"/>
<path d="M24.5 1C22.29 1 20.5 2.79 20.5 5C20.5 5.89 20.79 6.71 21.28 7.38C19.33 8.5 18 10.59 18 13C18 15.03 18.94 16.84 20.41 18.03C17.41 19.09 13 23.58 13 31.5H36C36 23.58 31.59 19.09 28.59 18.03C30.06 16.84 31 15.03 31 13C31 10.59 29.67 8.5 27.72 7.38C28.21 6.71 28.5 5.89 28.5 5C28.5 2.79 26.71 1 24.5 1Z" fill="black" stroke="#AAAAAA" stroke-width="1.5" stroke-linecap="round"/>
<path d="M33.5 1C31.29 1 29.5 2.79 29.5 5C29.5 5.89 29.79 6.71 30.28 7.38C28.33 8.5 27 10.59 27 13C27 15.03 27.94 16.84 29.41 18.03C26.41 19.09 22 23.58 22 31.5H45C45 23.58 40.59 19.09 37.59 18.03C39.06 16.84 40 15.03 40 13C40 10.59 38.67 8.5 36.72 7.38C37.21 6.71 37.5 5.89 37.5 5C37.5 2.79 35.71 1 33.5 1Z" fill="black" stroke="#AAAAAA" stroke-width="1.5" stroke-linecap="round"/>
<path d="M43.5 1C41.29 1 39.5 2.79 39.5 5C39.5 5.89 39.79 6.71 40.28 7.38C38.33 8.5 37 10.59 37 13C37 15.03 37.94 16.84 39.41 18.03C36.41 19.09 32 23.58 32 31.5H55C55 23.58 50.59 19.09 47.59 18.03C49.06 16.84 50 15.03 50 13C50 10.59 48.67 8.5 46.72 7.38C47.21 6.71 47.5 5.89 47.5 5C47.5 2.79 45.71 1 43.5 1Z" fill="black" stroke="#AAAAAA" stroke-width="1.5" stroke-linecap="round"/>
<path d="M16.5 7C14.29 7 12.5 8.79 12.5 11C12.5 11.89 12.79 12.71 13.28 13.38C11.33 14.5 10 16.59 10 19C10 21.03 10.94 22.84 12.41 24.03C9.41 25.09 5 29.58 5 37.5H28C28 29.58 23.59 25.09 20.59 24.03C22.06 22.84 23 21.03 23 19C23 16.59 21.67 14.5 19.72 13.38C20.21 12.71 20.5 11.89 20.5 11C20.5 8.79 18.71 7 16.5 7Z" fill="black" stroke="#AAAAAA" stroke-width="1.5" stroke-linecap="round"/>
<path d="M28.5 7C26.29 7 24.5 8.79 24.5 11C24.5 11.89 24.79 12.71 25.28 13.38C23.33 14.5 22 16.59 22 19C22 21.03 22.94 22.84 24.41 24.03C21.41 25.09 17 29.58 17 37.5H40C40 29.58 35.59 25.09 32.59 24.03C34.06 22.84 35 21.03 35 19C35 16.59 33.67 14.5 31.72 13.38C32.21 12.71 32.5 11.89 32.5 11C32.5 8.79 30.71 7 28.5 7Z" fill="black" stroke="#AAAAAA" stroke-width="1.5" stroke-linecap="round"/>
<path d="M37.5 7C35.29 7 33.5 8.79 33.5 11C33.5 11.89 33.79 12.71 34.28 13.38C32.33 14.5 31 16.59 31 19C31 21.03 31.94 22.84 33.41 24.03C30.41 25.09 26 29.58 26 37.5H49C49 29.58 44.59 25.09 41.59 24.03C43.06 22.84 44 21.03 44 19C44 16.59 42.67 14.5 40.72 13.38C41.21 12.71 41.5 11.89 41.5 11C41.5 8.79 39.71 7 37.5 7Z" fill="black" stroke="#AAAAAA" stroke-width="1.5" stroke-linecap="round"/>
</svg>
