<svg width="134" height="200" viewBox="0 0 134 200" fill="none" xmlns="http://www.w3.org/2000/svg">
<path d="M96.6667 50C96.6667 46.0603 95.8907 42.1593 94.3831 38.5195C92.8754 34.8797 90.6656 31.5726 87.8799 28.7868C85.0941 26.001 81.7869 23.7913 78.1472 22.2836C74.5074 20.776 70.6063 20 66.6667 20C62.727 20 58.8259 20.776 55.1862 22.2836C51.5464 23.7913 48.2392 26.001 45.4535 28.7868C42.6677 31.5726 40.4579 34.8797 38.9503 38.5195C37.4426 42.1593 36.6667 46.0603 36.6667 50C36.6667 53.9397 37.4426 57.8407 38.9503 61.4805C40.4579 65.1203 42.6677 68.4274 45.4535 71.2132C48.2392 73.999 51.5464 76.2087 55.1862 77.7164C58.8259 79.224 62.727 80 66.6667 80C70.6063 80 74.5074 79.224 78.1472 77.7164C81.7869 76.2087 85.0941 73.999 87.8799 71.2132C90.6656 68.4274 92.8754 65.1203 94.3831 61.4805C95.8907 57.8407 96.6667 53.9397 96.6667 50ZM106.667 100H101.417L105.875 133.333H85.7083L81.25 100H66.6667H52.0833L47.625 133.333H27.4583L31.9167 100H26.6667C21.125 100 16.6667 95.5417 16.6667 90C16.6667 84.4583 21.125 80 26.6667 80C20.375 71.625 16.6667 61.25 16.6667 50C16.6667 22.375 39.0417 0 66.6667 0C94.2917 0 116.667 22.375 116.667 50C116.667 61.25 112.958 71.625 106.667 80C112.208 80 116.667 84.4583 116.667 90C116.667 95.5417 112.208 100 106.667 100ZM21.9583 180H111.375L104.458 166.667H28.8333L21.9583 180ZM108.583 146.667C113.583 146.667 118.125 149.458 120.417 153.875L131.458 175.208C132.708 177.625 133.375 180.292 133.375 183C133.375 192.375 125.792 200 116.375 200H17C7.58333 200 0 192.417 0 183C0 180.292 0.666667 177.625 1.91667 175.208L12.9583 153.875C15.2083 149.458 19.7917 146.667 24.7917 146.667H108.542H108.583Z" fill="#FFCD05"/>
</svg>
