<svg width="40" height="40" viewBox="0 0 40 40" fill="none" xmlns="http://www.w3.org/2000/svg">
<path d="M34.7193 4.3281L35.6719 5.28072C36.4119 6.02076 36.4119 7.21744 35.6719 7.94961L33.3809 10.2485L29.7515 6.6191L32.0425 4.3281C32.7826 3.58805 33.9792 3.58805 34.7114 4.3281H34.7193ZM16.5172 19.8612L27.0826 9.288L30.712 12.9174L20.1388 23.4828C19.9104 23.7111 19.627 23.8764 19.32 23.963L14.7144 25.2778L16.0291 20.6721C16.1157 20.3651 16.2811 20.0817 16.5094 19.8534L16.5172 19.8612ZM29.3736 1.6592L13.8405 17.1845C13.1555 17.8694 12.6595 18.7118 12.3997 19.6329L10.1481 27.5058C9.95916 28.1671 10.1402 28.8757 10.6284 29.3638C11.1165 29.8519 11.825 30.033 12.4863 29.844L20.3592 27.5924C21.2882 27.3247 22.1306 26.8287 22.8077 26.1517L38.3408 10.6264C40.5531 8.41411 40.5531 4.82409 38.3408 2.61182L37.3882 1.6592C35.1759 -0.553068 31.5859 -0.553068 29.3736 1.6592ZM6.92811 4.72962C3.1019 4.72962 0 7.83152 0 11.6577V33.0719C0 36.8981 3.1019 40 6.92811 40H28.3423C32.1685 40 35.2704 36.8981 35.2704 33.0719V24.2543C35.2704 23.2072 34.428 22.3648 33.3809 22.3648C32.3338 22.3648 31.4914 23.2072 31.4914 24.2543V33.0719C31.4914 34.8118 30.0822 36.221 28.3423 36.221H6.92811C5.18821 36.221 3.77897 34.8118 3.77897 33.0719V11.6577C3.77897 9.91783 5.18821 8.50859 6.92811 8.50859H15.7457C16.7928 8.50859 17.6352 7.66619 17.6352 6.6191C17.6352 5.57201 16.7928 4.72962 15.7457 4.72962H6.92811Z" fill="white"/>
</svg>
