<svg width="60" height="60" viewBox="0 0 60 60" fill="none" xmlns="http://www.w3.org/2000/svg">
<path d="M22.5 12.2813C22.5 11.2031 21.8203 10.2539 20.9531 9.60938C19.5938 8.58984 18.75 7.18359 18.75 5.625C18.75 2.51953 22.1133 0 26.25 0C30.3867 0 33.75 2.51953 33.75 5.625C33.75 7.18359 32.9063 8.58984 31.5469 9.60938C30.6797 10.2539 30 11.2031 30 12.2813C30 13.7813 31.2188 15 32.7188 15H39.375C42.4805 15 45 17.5195 45 20.625V27.2813C45 28.7813 46.2188 30 47.7188 30C48.7969 30 49.7461 29.3203 50.3906 28.4531C51.4102 27.0938 52.8164 26.25 54.375 26.25C57.4805 26.25 60 29.6133 60 33.75C60 37.8867 57.4805 41.25 54.375 41.25C52.8164 41.25 51.4102 40.4063 50.3906 39.0469C49.7461 38.1797 48.7969 37.5 47.7188 37.5C46.2188 37.5 45 38.7188 45 40.2188V54.375C45 57.4805 42.4805 60 39.375 60H32.7188C31.2188 60 30 58.7812 30 57.2812C30 56.2031 30.6797 55.2539 31.5469 54.6094C32.9063 53.5898 33.75 52.1836 33.75 50.625C33.75 47.5195 30.3867 45 26.25 45C22.1133 45 18.75 47.5195 18.75 50.625C18.75 52.1836 19.5938 53.5898 20.9531 54.6094C21.8203 55.2539 22.5 56.2031 22.5 57.2812C22.5 58.7812 21.2813 60 19.7813 60H5.625C2.51953 60 0 57.4805 0 54.375V40.2188C0 38.7188 1.21875 37.5 2.71875 37.5C3.79688 37.5 4.74609 38.1797 5.39062 39.0469C6.41016 40.4063 7.81641 41.25 9.375 41.25C12.4805 41.25 15 37.8867 15 33.75C15 29.6133 12.4805 26.25 9.375 26.25C7.81641 26.25 6.41016 27.0938 5.39062 28.4531C4.74609 29.3203 3.79688 30 2.71875 30C1.21875 30 0 28.7813 0 27.2813V20.625C0 17.5195 2.51953 15 5.625 15H19.7813C21.2813 15 22.5 13.7813 22.5 12.2813Z" fill="white"/>
</svg>
