<svg width="80" height="80" viewBox="0 0 80 80" fill="none" xmlns="http://www.w3.org/2000/svg">
<path d="M30 16.375C30 14.9375 29.0938 13.6719 27.9375 12.8125C26.125 11.4531 25 9.57813 25 7.5C25 3.35938 29.4844 0 35 0C40.5156 0 45 3.35938 45 7.5C45 9.57813 43.875 11.4531 42.0625 12.8125C40.9063 13.6719 40 14.9375 40 16.375C40 18.375 41.625 20 43.625 20H52.5C56.6406 20 60 23.3594 60 27.5V36.375C60 38.375 61.625 40 63.625 40C65.0625 40 66.3281 39.0938 67.1875 37.9375C68.5469 36.125 70.4219 35 72.5 35C76.6406 35 80 39.4844 80 45C80 50.5156 76.6406 55 72.5 55C70.4219 55 68.5469 53.875 67.1875 52.0625C66.3281 50.9063 65.0625 50 63.625 50C61.625 50 60 51.625 60 53.625V72.5C60 76.6406 56.6406 80 52.5 80H43.625C41.625 80 40 78.375 40 76.375C40 74.9375 40.9063 73.6719 42.0625 72.8125C43.875 71.4531 45 69.5781 45 67.5C45 63.3594 40.5156 60 35 60C29.4844 60 25 63.3594 25 67.5C25 69.5781 26.125 71.4531 27.9375 72.8125C29.0938 73.6719 30 74.9375 30 76.375C30 78.375 28.375 80 26.375 80H7.5C3.35938 80 0 76.6406 0 72.5V53.625C0 51.625 1.625 50 3.625 50C5.0625 50 6.32812 50.9063 7.1875 52.0625C8.54687 53.875 10.4219 55 12.5 55C16.6406 55 20 50.5156 20 45C20 39.4844 16.6406 35 12.5 35C10.4219 35 8.54687 36.125 7.1875 37.9375C6.32812 39.0938 5.0625 40 3.625 40C1.625 40 0 38.375 0 36.375V27.5C0 23.3594 3.35938 20 7.5 20H26.375C28.375 20 30 18.375 30 16.375Z" fill="#FFCD05"/>
</svg>
