<svg width="34" height="25" viewBox="0 0 34 25" fill="none" xmlns="http://www.w3.org/2000/svg">
<path d="M3.41734 24.5169C2.79897 25.0312 1.93324 25.1483 1.1977 24.8033C0.462155 24.4583 0 23.7228 0 22.9157V2.08613C0 1.27898 0.468664 0.543439 1.1977 0.19845C1.92673 -0.146539 2.79246 -0.0358825 3.41734 0.484856L14.5807 9.78654V12.5009V15.2152L3.41734 24.5169ZM16.6636 18.7497V12.5009V4.16908V2.08613C16.6636 1.27898 17.1323 0.543439 17.8613 0.19845C18.5904 -0.146539 19.4561 -0.0358825 20.081 0.484856L32.5787 10.8996C33.0539 11.2967 33.3272 11.8825 33.3272 12.5009C33.3272 13.1193 33.0539 13.7051 32.5787 14.1022L20.081 24.5169C19.4626 25.0312 18.5969 25.1483 17.8613 24.8033C17.1258 24.4583 16.6636 23.7228 16.6636 22.9157V18.7497Z" fill="white"/>
</svg>
