<svg width="38" height="30" viewBox="0 0 38 30" fill="none" xmlns="http://www.w3.org/2000/svg">
<path d="M13.125 0C15.1141 0 17.0218 0.790176 18.4283 2.1967C19.8348 3.60322 20.625 5.51088 20.625 7.5C20.625 9.48912 19.8348 11.3968 18.4283 12.8033C17.0218 14.2098 15.1141 15 13.125 15C11.1359 15 9.22822 14.2098 7.8217 12.8033C6.41518 11.3968 5.625 9.48912 5.625 7.5C5.625 5.51088 6.41518 3.60322 7.8217 2.1967C9.22822 0.790176 11.1359 0 13.125 0ZM10.4473 17.8125H15.8027C17.0098 17.8125 18.1699 18.0176 19.248 18.3926C18.9258 19.3945 18.75 20.4551 18.75 21.5625C18.75 25.0488 20.4785 28.1309 23.1328 30H1.74023C0.779297 30 0 29.2207 0 28.2598C0 22.4883 4.67578 17.8125 10.4473 17.8125ZM20.625 21.5625C20.625 19.3247 21.5139 17.1786 23.0963 15.5963C24.6786 14.0139 26.8247 13.125 29.0625 13.125C31.3003 13.125 33.4464 14.0139 35.0287 15.5963C36.611 17.1786 37.5 19.3247 37.5 21.5625C37.5 23.8003 36.611 25.9464 35.0287 27.5287C33.4464 29.1111 31.3003 30 29.0625 30C26.8247 30 24.6786 29.1111 23.0963 27.5287C21.5139 25.9464 20.625 23.8003 20.625 21.5625ZM29.0625 16.875C28.5469 16.875 28.125 17.2969 28.125 17.8125V21.5625C28.125 22.0781 28.5469 22.5 29.0625 22.5H31.875C32.3906 22.5 32.8125 22.0781 32.8125 21.5625C32.8125 21.0469 32.3906 20.625 31.875 20.625H30V17.8125C30 17.2969 29.5781 16.875 29.0625 16.875Z" fill="black"/>
</svg>
