<svg width="60" height="60" viewBox="0 0 60 60" fill="none" xmlns="http://www.w3.org/2000/svg">
<path d="M30 5.625C36.4647 5.625 42.6645 8.19307 47.2357 12.7643C51.8069 17.3355 54.375 23.5353 54.375 30C54.375 36.4647 51.8069 42.6645 47.2357 47.2357C42.6645 51.8069 36.4647 54.375 30 54.375C23.5353 54.375 17.3355 51.8069 12.7643 47.2357C8.19307 42.6645 5.625 36.4647 5.625 30C5.625 23.5353 8.19307 17.3355 12.7643 12.7643C17.3355 8.19307 23.5353 5.625 30 5.625ZM30 60C37.9565 60 45.5871 56.8393 51.2132 51.2132C56.8393 45.5871 60 37.9565 60 30C60 22.0435 56.8393 14.4129 51.2132 8.7868C45.5871 3.16071 37.9565 0 30 0C22.0435 0 14.4129 3.16071 8.7868 8.7868C3.16071 14.4129 0 22.0435 0 30C0 37.9565 3.16071 45.5871 8.7868 51.2132C14.4129 56.8393 22.0435 60 30 60ZM20.5078 20.5078C19.4062 21.6094 19.4062 23.3906 20.5078 24.4805L26.0156 29.9883L20.5078 35.4961C19.4062 36.5977 19.4062 38.3789 20.5078 39.4688C21.6094 40.5586 23.3906 40.5703 24.4805 39.4688L29.9883 33.9609L35.4961 39.4688C36.5977 40.5703 38.3789 40.5703 39.4688 39.4688C40.5586 38.3672 40.5703 36.5859 39.4688 35.4961L33.9609 29.9883L39.4688 24.4805C40.5703 23.3789 40.5703 21.5977 39.4688 20.5078C38.3672 19.418 36.5859 19.4062 35.4961 20.5078L29.9883 26.0156L24.4805 20.5078C23.3789 19.4062 21.5977 19.4062 20.5078 20.5078Z" fill="black"/>
</svg>
